<?xml version="1.0" standalone="yes"?>

<svg version="1.1" viewBox="0.0 0.0 239.0 232.501312335958" fill="none" stroke="none" stroke-linecap="square" stroke-miterlimit="10" xmlns="http://www.w3.org/2000/svg" xmlns:xlink="http://www.w3.org/1999/xlink"><clipPath id="p.0"><path d="m0 0l239.0 0l0 232.50131l-239.0 0l0 -232.50131z" clip-rule="nonzero"></path></clipPath><g clip-path="url(#p.0)"><path fill="#000000" fill-opacity="0.0" d="m0 0l239.0 0l0 232.50131l-239.0 0z" fill-rule="evenodd"></path><path fill="#999999" d="m-2.6246718E-7 -1.687664l238.48819 0.062992096l0 233.63779l-238.48819 -0.06298828z" fill-rule="evenodd"></path><path stroke="#999999" stroke-width="1.0" stroke-linejoin="round" stroke-linecap="butt" d="m-2.6246718E-7 -1.687664l238.48819 0.062992096l0 233.63779l-238.48819 -0.06298828z" fill-rule="evenodd"></path><path fill="#000000" d="m-1.8346457E-4 21.24257l18.929134 -18.929134l19.433071 19.433071l-18.929134 18.929132zm4.7322836 0l14.7007885 14.7007885l14.19685 -14.196852l-14.700787 -14.700788z" fill-rule="evenodd"></path><path stroke="#000000" stroke-width="1.0" stroke-linejoin="round" stroke-linecap="butt" d="m-1.8346457E-4 21.24257l18.929134 -18.929134l19.433071 19.433071l-18.929134 18.929132zm4.7322836 0l14.7007885 14.7007885l14.19685 -14.196852l-14.700787 -14.700788z" fill-rule="evenodd"></path><path fill="#b7b7b7" d="m33.558872 21.867243l18.929134 -18.929134l19.433067 19.433071l-18.92913 18.929132zm4.7322845 0l14.700787 14.7007885l14.196846 -14.196852l-14.700783 -14.700788z" fill-rule="evenodd"></path><path stroke="#b7b7b7" stroke-width="1.0" stroke-linejoin="round" stroke-linecap="butt" d="m33.558872 21.867243l18.929134 -18.929134l19.433067 19.433071l-18.92913 18.929132zm4.7322845 0l14.700787 14.7007885l14.196846 -14.196852l-14.700783 -14.700788z" fill-rule="evenodd"></path><path fill="#b7b7b7" d="m66.17042 21.24257l18.929138 -18.929134l19.433067 19.433071l-18.92913 18.929132zm4.7322845 0l14.70079 14.7007885l14.196846 -14.196852l-14.700783 -14.700788z" fill-rule="evenodd"></path><path stroke="#b7b7b7" stroke-width="1.0" stroke-linejoin="round" stroke-linecap="butt" d="m66.17042 21.24257l18.929138 -18.929134l19.433067 19.433071l-18.92913 18.929132zm4.7322845 0l14.70079 14.7007885l14.196846 -14.196852l-14.700783 -14.700788z" fill-rule="evenodd"></path><path fill="#000000" d="m99.48407 21.867243l18.92913 -18.929134l19.433067 19.433071l-18.92913 18.929132zm4.7322845 0l14.700783 14.7007885l14.196846 -14.196852l-14.700783 -14.700788z" fill-rule="evenodd"></path><path stroke="#000000" stroke-width="1.0" stroke-linejoin="round" stroke-linecap="butt" d="m99.48407 21.867243l18.92913 -18.929134l19.433067 19.433071l-18.92913 18.929132zm4.7322845 0l14.700783 14.7007885l14.196846 -14.196852l-14.700783 -14.700788z" fill-rule="evenodd"></path><path fill="#000000" d="m132.97226 21.867243l18.929138 -18.929134l19.43306 19.433071l-18.929123 18.929132zm4.7322845 0l14.70079 14.7007885l14.196838 -14.196852l-14.700775 -14.700788z" fill-rule="evenodd"></path><path stroke="#000000" stroke-width="1.0" stroke-linejoin="round" stroke-linecap="butt" d="m132.97226 21.867243l18.929138 -18.929134l19.43306 19.433071l-18.929123 18.929132zm4.7322845 0l14.70079 14.7007885l14.196838 -14.196852l-14.700775 -14.700788z" fill-rule="evenodd"></path><path fill="#000000" d="m166.45651 21.867243l18.929138 -18.929134l19.43306 19.433071l-18.929123 18.929132zm4.7322845 0l14.70079 14.7007885l14.196838 -14.196852l-14.700775 -14.700788z" fill-rule="evenodd"></path><path stroke="#000000" stroke-width="1.0" stroke-linejoin="round" stroke-linecap="butt" d="m166.45651 21.867243l18.929138 -18.929134l19.43306 19.433071l-18.929123 18.929132zm4.7322845 0l14.70079 14.7007885l14.196838 -14.196852l-14.700775 -14.700788z" fill-rule="evenodd"></path><path fill="#b7b7b7" d="m199.77147 22.557531l18.929138 -18.929134l19.433075 19.433071l-18.929138 18.929132zm4.7322845 0l14.70079 14.7007885l14.196854 -14.196852l-14.70079 -14.700788z" fill-rule="evenodd"></path><path stroke="#b7b7b7" stroke-width="1.0" stroke-linejoin="round" stroke-linecap="butt" d="m199.77147 22.557531l18.929138 -18.929134l19.433075 19.433071l-18.929138 18.929132zm4.7322845 0l14.70079 14.7007885l14.196854 -14.196852l-14.70079 -14.700788z" fill-rule="evenodd"></path><path fill="#000000" fill-opacity="0.0" d="m240.02887 31.501312l-238.99213 0l0 200.53543l238.99213 0z" fill-rule="evenodd"></path><path fill="#000000" d="m144.91089 152.87402q3.890625 6.46875 6.53125 11.328125q2.640625 4.859375 5.453125 10.890625l1.40625 0q-0.546875 -6.578125 -0.984375 -26.15625q-0.421875 -19.59375 -0.421875 -35.34375l0 -22.65625q0 -7.453125 -0.4375 -10.90625q-0.421875 -3.453125 -1.5625 -5.28125q-1.125 -1.84375 -3.125 -2.96875q-2.0 -1.140625 -6.96875 -2.546875l0 -5.28125l38.859375 0l0 5.28125q-4.859375 1.296875 -6.859375 2.375q-2.0 1.078125 -3.234375 2.8125q-1.234375 1.71875 -1.890625 5.171875q-0.640625 3.453125 -0.640625 11.34375l0 120.953125l-13.5 0l-60.093758 -100.78125q-5.609375 -9.390625 -7.984375 -13.703125q-2.375 -4.3125 -4.4375 -8.53125l-1.828125 0q0.75 8.3125 1.078125 30.0625q0.328125 21.734375 0.328125 43.328125l0 22.0q0 7.234375 0.484375 10.578125q0.484375 3.34375 1.609375 5.296875q1.140625 1.9375 3.34375 3.234375q2.21875 1.296875 7.1875 2.59375l0 5.28125l-39.39062 0l0 -5.28125q6.687496 -1.734375 8.953121 -3.828125q2.265625 -2.109375 2.96875 -6.0q0.703125 -3.890625 0.703125 -11.875l0 -93.328125q0 -7.453125 -0.546875 -10.84375q-0.53125 -3.40625 -1.78125 -5.296875q-1.234375 -1.890625 -3.28125 -3.015625q-2.0468712 -1.140625 -7.015621 -2.546875l0 -5.28125l33.781246 0l53.296883 88.921875z" fill-rule="nonzero"></path></g></svg>

